<svg xmlns="http://www.w3.org/2000/svg" viewBox="0 0 768 768" width="768" height="768">
	<defs>
		<clipPath clipPathUnits="userSpaceOnUse" id="cp1">
			<path d="M-128 -128L896 -128L896 896L-128 896Z" />
		</clipPath>
		<clipPath clipPathUnits="userSpaceOnUse" id="cp2">
			<path d="M-128 -128L896 -128L896 896L-128 896L-128 -128Z" />
		</clipPath>
	</defs>
	<style>
		tspan { white-space:pre }
		.shp0 { fill: #000000 } 
	</style>
	<g id="Page 1" clip-path="url(#cp1)">
		<g id="Mask" clip-path="url(#cp2)">
			<path id="Path 2" fill-rule="evenodd" class="shp0" d="M768 384C768 596.2 596 768 384 768C172 768 0 596.2 0 384C0 172 172 0 384 0C596 0 768 172 768 384ZM458.4 303.4C467.8 323.4 476.4 344.2 484.8 365.4C551.2 359.2 634 359.2 703.2 362.8C698.4 292.2 671 227.8 627.8 177C594 226.6 535 270.2 458.4 303.4ZM305.2 74.2C350.8 120.8 393.6 180 430.8 248.8C498.8 219.8 553.4 181.6 588.2 137.6C532.8 91.6 461.6 64 384 64C356.8 64 330.6 67.8 305.2 74.2ZM74 305.2C90.2 306.2 106.6 306.8 123.4 306.8C211.8 306.8 294.6 294.2 366.8 272.2C328.8 203.6 285.4 145 239.2 99C158 140.2 97 215 74 305.2ZM64 384C64 465 94.4 538.8 144 595.2C191 505 277.8 430.4 388 384.2C395.8 381 405.6 378.2 416.6 375.6C409.8 359 402.6 342.8 395 327C314.4 352.8 220.6 368.6 119.8 369.8C101.2 370 82.8 369.6 64.6 368.8C64.2 373.8 64 378.8 64 384ZM497.2 683C491.2 632.2 481.4 579.8 467.6 526.8C458.6 492.8 448.4 460 437 428.4C423.2 431.4 411.2 434.8 402.2 439C306.4 482.4 230.4 552.2 187.8 636.6C242 678.8 310 704 384 704C424 704 462 696.4 497.2 683ZM702 419.4C642.2 415 567 414.2 504.2 419.4C512.6 444 520.4 469.2 527.2 495.2C541.2 548.8 551 601.6 557 653C636 602 691.2 517.6 702 419.4Z" />
		</g>
	</g>
</svg>