<svg xmlns="http://www.w3.org/2000/svg" viewBox="0 0 896 768" width="896" height="768">
	<defs>
		<clipPath clipPathUnits="userSpaceOnUse" id="cp1">
			<path d="M-64 -128L960 -128L960 896L-64 896Z" />
		</clipPath>
		<clipPath clipPathUnits="userSpaceOnUse" id="cp2">
			<path d="M-64 -128L960 -128L960 896L-64 896L-64 -128Z" />
		</clipPath>
	</defs>
	<style>
		tspan { white-space:pre }
		.shp0 { fill: #231f20 } 
	</style>
	<g id="Page 1" clip-path="url(#cp1)">
		<g id="Mask" clip-path="url(#cp2)">
			<path id="Path 2" class="shp0" d="M292.71 446.96C274.46 446.96 258.85 455.37 246.31 472.62C233.72 489.58 227.51 510.57 227.51 535.48C227.51 560.43 233.84 581.5 246.31 598.5C258.85 615.58 274.38 624.04 292.71 624.04C309.7 624.04 324.49 615.5 336.95 598.5C349.49 581.5 355.75 560.43 355.75 535.48C355.75 510.65 349.41 489.62 336.95 472.62C324.48 455.45 309.82 446.96 292.71 446.96ZM605.34 446.96C587.25 446.96 571.55 455.37 558.97 472.62C546.43 489.58 540.25 510.57 540.25 535.48C540.25 560.43 546.63 581.5 558.97 598.5C571.55 615.58 587.17 624.04 605.34 624.04C622.4 624.04 637.15 615.5 649.69 598.5C662.28 581.5 668.53 560.43 668.53 535.48C668.53 510.65 662.2 489.62 649.69 472.62C637.15 455.45 622.6 446.96 605.34 446.96Z" />
			<path id="Path 3" fill-rule="evenodd" class="shp0" d="M896 407.29C896 455.78 894.69 499.74 883.71 538.55C872.51 577.17 858.39 608.81 841.52 632.99C824.29 657.39 803.53 678.8 778.48 696.86C753.43 715.49 730.35 728.71 709.54 737.3C688.7 745.8 664.76 752.42 637.66 757.02C610.88 761.74 590.63 764.31 576.59 765.01C576.59 765.01 520.71 768 448 768C375.29 768 319.29 765.01 319.29 765.01C305.22 764.31 285 761.79 258.34 757.02C231.13 752.5 207.3 746.04 186.38 737.3C165.57 728.79 142.53 715.49 117.6 696.86C92.47 678.56 71.67 657.23 54.45 632.99C37.57 608.81 23.38 577.17 12.25 538.55C1.32 499.74 0 456.07 0 407.59C0 345.08 19.96 269.1 68.48 216.6C68.48 216.6 62.82 187.82 67.61 137.94C71.94 87.98 82.51 41.96 99.7 0C160.22 6.46 234.7 40.63 323.89 102.35C354.01 94.48 395.26 90.46 447.84 90.46C503.01 90.46 544.22 94.47 571.83 102.34C612.45 74.9 651.34 52.41 688.42 35.33C726.14 18.39 753.62 10.06 770.3 5.79C786.97 1.52 795.82 0 795.82 0C813.12 41.96 823.7 87.81 828.06 137.64C833.02 187.47 827.44 216 827.44 216L827.55 216C875.96 270 896 346.78 896 407.29ZM780.6 521.73C780.6 474.58 762.87 435.07 727.4 403.57C709.11 386.49 687.72 378.09 663.14 374.08C639.2 370.14 602.19 372.14 552.21 376.08C502.43 380.09 471.4 384 448 384C423.07 384 398.06 380.57 364.48 377.98C330.89 375.44 304.59 371.88 285.79 371.05C266.56 370.45 246.11 370.86 223.85 375.98C201.44 381.37 183.27 390.38 168.56 403.41C134.74 433.65 117.6 472.97 117.6 521.63C117.6 602.99 145.12 656.92 200.14 683.1C255.11 709.43 336.95 719.92 445.84 719.92L450.12 720C558.97 720 641.04 709.47 696.77 683.29C752.33 657.07 780.6 603.07 780.6 521.73Z" />
		</g>
	</g>
</svg>