<svg xmlns="http://www.w3.org/2000/svg" viewBox="0 0 768 768" width="768" height="768">
	<defs>
		<clipPath clipPathUnits="userSpaceOnUse" id="cp1">
			<path d="M-129 -129L895 -129L895 895L-129 895Z" />
		</clipPath>
		<clipPath clipPathUnits="userSpaceOnUse" id="cp2">
			<path d="M-129 -129L895 -129L895 895L-129 895L-129 -129Z" />
		</clipPath>
	</defs>
	<style>
		tspan { white-space:pre }
		.shp0 { fill: #000000 } 
	</style>
	<g id="Page 1" clip-path="url(#cp1)">
		<g id="Mask" clip-path="url(#cp2)">
			<path id="Path 2" class="shp0" d="M496.14 269.53C558.62 332.01 558.62 433.32 496.14 495.8C433.65 558.29 332.35 558.29 269.86 495.8C207.38 433.32 207.38 332.01 269.86 269.53C332.35 207.04 433.65 207.04 496.14 269.53Z" />
			<path id="Path 3" fill-rule="evenodd" class="shp0" d="M170.14 320L0 320L0 94C0 40.98 44.98 0 98 0L674 0C727.02 0 768 40.98 768 94L768 320L599.85 320C589.41 284 570.23 251.74 543.39 224.9C501.08 182.59 444.83 158.92 385 158.92C325.17 158.92 268.92 182.47 226.61 224.77C199.77 251.62 180.59 284 170.14 320ZM704 89.6C704 75.46 692.54 64 678.4 64L601.6 64C587.46 64 576 75.46 576 89.6L576 166.4C576 180.54 587.46 192 601.6 192L678.4 192C692.54 192 704 180.54 704 166.4L704 89.6ZM609 384L768 384L768 670C768 723.02 727.02 768 674 768L98 768C44.98 768 0 723.02 0 670L0 384L161 384C161.09 442 184.38 499.45 226.61 541.68C268.92 583.99 325.17 606.92 385 606.92C444.83 606.92 501.08 583.87 543.39 541.56C585.62 499.33 608.91 442 609 384Z" />
		</g>
	</g>
</svg>