<svg xmlns="http://www.w3.org/2000/svg" viewBox="0 0 944 768" width="944" height="768">
	<defs>
		<clipPath clipPathUnits="userSpaceOnUse" id="cp1">
			<path d="M-40 -128L984 -128L984 896L-40 896Z" />
		</clipPath>
		<clipPath clipPathUnits="userSpaceOnUse" id="cp2">
			<path d="M-40 -128L984 -128L984 896L-40 896L-40 -128Z" />
		</clipPath>
	</defs>
	<style>
		tspan { white-space:pre }
		.shp0 { fill: #000000 } 
	</style>
	<g id="Page 1" clip-path="url(#cp1)">
		<g id="Mask" clip-path="url(#cp2)">
			<path id="Path 2" class="shp0" d="M944 91C909.2 106.4 872 116.8 832.8 121.6C872.8 97.6 903.6 59.6 918 14.4C880.6 36.6 839.2 52.8 795 61.4C759.6 23.6 709.2 0 653.6 0C546.6 0 460 86.8 460 193.8C460 209 461.6 223.8 465 238C304 230 161.2 152.8 65.8 35.4C49.2 64 39.6 97.4 39.6 132.8C39.6 200 74 259.4 126 294.2C94 293.4 64 284.6 38 270C38 270.8 38 271.6 38 272.4C38 366.4 104.8 444.6 193.4 462.4C177.2 466.8 160 469.2 142.4 469.2C130 469.2 117.8 468 106 465.6C130.6 542.6 202.2 598.6 287 600.2C220.8 652.2 137.2 683.2 46.4 683.2C30.8 683.2 15.4 682.2 0.2 680.4C85.6 736 187.4 768 296.6 768C653.2 768 848 472.6 848 216.4C848 208 847.8 199.6 847.4 191.4C885.2 164 918 130 944 91Z" />
		</g>
	</g>
</svg>